<svg xmlns="http://www.w3.org/2000/svg" width="140" height="140" viewBox="0 0 140 140">
  <circle cx="70" cy="70" r="68" fill="#faf9f5" stroke="#e4ded1" stroke-width="2"/>
  <g transform="translate(70,52)">
    <path d="M0,0 C-22,-6 -34,-24 -30,-42 C-10,-38 4,-22 0,0 Z" fill="#3f8a56"/>
    <path d="M0,0 C-10,-10 -14,-26 -6,-40 C8,-32 12,-14 0,0 Z" fill="#2f6b46"/>
    <path d="M0,0 C10,-10 14,-26 6,-40 C-8,-32 -12,-14 0,0 Z" fill="#5aa9c9"/>
    <path d="M0,0 C22,-6 34,-24 30,-42 C10,-38 -4,-22 0,0 Z" fill="#8cc7dd"/>
  </g>
  <text x="70" y="95" font-family="Georgia, 'Times New Roman', serif" font-style="italic" font-size="22" fill="#1e3d2b" text-anchor="middle">Edén</text>
  <text x="70" y="114" font-family="Georgia, 'Times New Roman', serif" font-size="11" letter-spacing="2" fill="#2f6b46" text-anchor="middle">PORCUNA</text>
</svg>
